<mxfile host="app.diagrams.net" modified="2023-04-16T15:08:38.740Z" agent="Mozilla/5.0 (Windows NT 10.0; Win64; x64) AppleWebKit/537.36 (KHTML, like Gecko) Chrome/104.0.0.0 Safari/537.36" etag="hTGw2ubd_abXrOcpcD3q" version="21.1.7" type="device" pages="2">
  <diagram name="Страница 1" id="GIOPOxWFB9DGz1uCtXGn">
    <mxGraphModel dx="1050" dy="1742" grid="1" gridSize="10" guides="1" tooltips="1" connect="1" arrows="1" fold="1" page="1" pageScale="1" pageWidth="827" pageHeight="1169" math="0" shadow="0">
      <root>
        <mxCell id="0" />
        <mxCell id="1" parent="0" />
        <mxCell id="gQ2Yj7BAhrdQgRN9vXCK-1" value="phone_dir" style="rounded=0;whiteSpace=wrap;html=1;" parent="1" vertex="1">
          <mxGeometry x="80" y="70" width="100" height="40" as="geometry" />
        </mxCell>
        <mxCell id="gQ2Yj7BAhrdQgRN9vXCK-2" value="person" style="rounded=0;whiteSpace=wrap;html=1;" parent="1" vertex="1">
          <mxGeometry x="364" y="70" width="100" height="40" as="geometry" />
        </mxCell>
        <mxCell id="gQ2Yj7BAhrdQgRN9vXCK-3" value="car" style="rounded=0;whiteSpace=wrap;html=1;" parent="1" vertex="1">
          <mxGeometry x="646" y="70" width="100" height="40" as="geometry" />
        </mxCell>
        <mxCell id="gQ2Yj7BAhrdQgRN9vXCK-4" value="has" style="rhombus;whiteSpace=wrap;html=1;" parent="1" vertex="1">
          <mxGeometry x="503" y="65" width="100" height="50" as="geometry" />
        </mxCell>
        <mxCell id="gQ2Yj7BAhrdQgRN9vXCK-5" value="" style="endArrow=none;html=1;rounded=0;exitX=1;exitY=0.5;exitDx=0;exitDy=0;entryX=0;entryY=0.5;entryDx=0;entryDy=0;" parent="1" source="gQ2Yj7BAhrdQgRN9vXCK-2" target="gQ2Yj7BAhrdQgRN9vXCK-4" edge="1">
          <mxGeometry width="50" height="50" relative="1" as="geometry">
            <mxPoint x="390" y="20" as="sourcePoint" />
            <mxPoint x="440" y="-30" as="targetPoint" />
          </mxGeometry>
        </mxCell>
        <mxCell id="gQ2Yj7BAhrdQgRN9vXCK-6" value="" style="endArrow=none;html=1;rounded=0;exitX=1;exitY=0.5;exitDx=0;exitDy=0;entryX=0;entryY=0.5;entryDx=0;entryDy=0;" parent="1" source="gQ2Yj7BAhrdQgRN9vXCK-4" target="gQ2Yj7BAhrdQgRN9vXCK-3" edge="1">
          <mxGeometry width="50" height="50" relative="1" as="geometry">
            <mxPoint x="390" y="20" as="sourcePoint" />
            <mxPoint x="440" y="-30" as="targetPoint" />
          </mxGeometry>
        </mxCell>
        <mxCell id="gQ2Yj7BAhrdQgRN9vXCK-7" value="" style="endArrow=none;html=1;rounded=0;exitX=0.5;exitY=0;exitDx=0;exitDy=0;entryX=0;entryY=0.5;entryDx=0;entryDy=0;" parent="1" source="gQ2Yj7BAhrdQgRN9vXCK-3" target="gQ2Yj7BAhrdQgRN9vXCK-12" edge="1">
          <mxGeometry width="50" height="50" relative="1" as="geometry">
            <mxPoint x="336" y="20" as="sourcePoint" />
            <mxPoint x="696" y="-120" as="targetPoint" />
          </mxGeometry>
        </mxCell>
        <mxCell id="gQ2Yj7BAhrdQgRN9vXCK-8" value="surname" style="ellipse;whiteSpace=wrap;html=1;" parent="1" vertex="1">
          <mxGeometry x="696" width="110" height="40" as="geometry" />
        </mxCell>
        <mxCell id="gQ2Yj7BAhrdQgRN9vXCK-9" value="model" style="ellipse;whiteSpace=wrap;html=1;" parent="1" vertex="1">
          <mxGeometry x="696" y="-60" width="110" height="40" as="geometry" />
        </mxCell>
        <mxCell id="gQ2Yj7BAhrdQgRN9vXCK-10" value="color" style="ellipse;whiteSpace=wrap;html=1;" parent="1" vertex="1">
          <mxGeometry x="586" y="-60" width="110" height="40" as="geometry" />
        </mxCell>
        <mxCell id="gQ2Yj7BAhrdQgRN9vXCK-11" value="cost" style="ellipse;whiteSpace=wrap;html=1;" parent="1" vertex="1">
          <mxGeometry x="586" y="-120" width="110" height="40" as="geometry" />
        </mxCell>
        <mxCell id="gQ2Yj7BAhrdQgRN9vXCK-12" value="number" style="ellipse;whiteSpace=wrap;html=1;" parent="1" vertex="1">
          <mxGeometry x="696" y="-120" width="110" height="40" as="geometry" />
        </mxCell>
        <mxCell id="gQ2Yj7BAhrdQgRN9vXCK-13" value="included in" style="rhombus;whiteSpace=wrap;html=1;" parent="1" vertex="1">
          <mxGeometry x="221" y="65" width="100" height="50" as="geometry" />
        </mxCell>
        <mxCell id="gQ2Yj7BAhrdQgRN9vXCK-14" value="" style="endArrow=none;html=1;rounded=0;exitX=1;exitY=0.5;exitDx=0;exitDy=0;entryX=0;entryY=0.5;entryDx=0;entryDy=0;" parent="1" source="gQ2Yj7BAhrdQgRN9vXCK-1" target="gQ2Yj7BAhrdQgRN9vXCK-13" edge="1">
          <mxGeometry width="50" height="50" relative="1" as="geometry">
            <mxPoint x="390" y="20" as="sourcePoint" />
            <mxPoint x="440" y="-30" as="targetPoint" />
          </mxGeometry>
        </mxCell>
        <mxCell id="gQ2Yj7BAhrdQgRN9vXCK-15" value="" style="endArrow=none;html=1;rounded=0;exitX=1;exitY=0.5;exitDx=0;exitDy=0;entryX=0;entryY=0.5;entryDx=0;entryDy=0;" parent="1" source="gQ2Yj7BAhrdQgRN9vXCK-13" target="gQ2Yj7BAhrdQgRN9vXCK-2" edge="1">
          <mxGeometry width="50" height="50" relative="1" as="geometry">
            <mxPoint x="390" y="20" as="sourcePoint" />
            <mxPoint x="440" y="-30" as="targetPoint" />
          </mxGeometry>
        </mxCell>
        <mxCell id="gQ2Yj7BAhrdQgRN9vXCK-16" value="surname" style="ellipse;whiteSpace=wrap;html=1;" parent="1" vertex="1">
          <mxGeometry x="130" width="110" height="40" as="geometry" />
        </mxCell>
        <mxCell id="gQ2Yj7BAhrdQgRN9vXCK-17" value="phone_number" style="ellipse;whiteSpace=wrap;html=1;" parent="1" vertex="1">
          <mxGeometry x="20" y="-60" width="110" height="40" as="geometry" />
        </mxCell>
        <mxCell id="gQ2Yj7BAhrdQgRN9vXCK-18" value="address" style="ellipse;whiteSpace=wrap;html=1;" parent="1" vertex="1">
          <mxGeometry x="130" y="-60" width="110" height="40" as="geometry" />
        </mxCell>
        <mxCell id="gQ2Yj7BAhrdQgRN9vXCK-19" value="" style="endArrow=none;html=1;rounded=0;exitX=0.5;exitY=0;exitDx=0;exitDy=0;" parent="1" source="gQ2Yj7BAhrdQgRN9vXCK-1" edge="1">
          <mxGeometry width="50" height="50" relative="1" as="geometry">
            <mxPoint x="390" y="-80" as="sourcePoint" />
            <mxPoint x="130" y="-40" as="targetPoint" />
          </mxGeometry>
        </mxCell>
      </root>
    </mxGraphModel>
  </diagram>
  <diagram id="5aDTrssEw8rVIw6tdWja" name="Страница 2">
    <mxGraphModel dx="1050" dy="573" grid="1" gridSize="10" guides="1" tooltips="1" connect="1" arrows="1" fold="1" page="1" pageScale="1" pageWidth="827" pageHeight="1169" math="0" shadow="0">
      <root>
        <mxCell id="0" />
        <mxCell id="1" parent="0" />
        <mxCell id="xWpMKaaXVbRMBy7SgJGM-22" value="" style="shape=table;startSize=0;container=1;collapsible=0;childLayout=tableLayout;fontSize=16;" vertex="1" parent="1">
          <mxGeometry x="180" y="170" width="530" height="357" as="geometry" />
        </mxCell>
        <mxCell id="xWpMKaaXVbRMBy7SgJGM-23" value="" style="shape=tableRow;horizontal=0;startSize=0;swimlaneHead=0;swimlaneBody=0;strokeColor=inherit;top=0;left=0;bottom=0;right=0;collapsible=0;dropTarget=0;fillColor=none;points=[[0,0.5],[1,0.5]];portConstraint=eastwest;fontSize=16;" vertex="1" parent="xWpMKaaXVbRMBy7SgJGM-22">
          <mxGeometry width="530" height="70" as="geometry" />
        </mxCell>
        <mxCell id="xWpMKaaXVbRMBy7SgJGM-24" value="Описание" style="shape=partialRectangle;html=1;whiteSpace=wrap;connectable=0;strokeColor=inherit;overflow=hidden;fillColor=none;top=0;left=0;bottom=0;right=0;pointerEvents=1;fontSize=16;" vertex="1" parent="xWpMKaaXVbRMBy7SgJGM-23">
          <mxGeometry width="157" height="70" as="geometry">
            <mxRectangle width="157" height="70" as="alternateBounds" />
          </mxGeometry>
        </mxCell>
        <mxCell id="xWpMKaaXVbRMBy7SgJGM-25" value="Prolog" style="shape=partialRectangle;html=1;whiteSpace=wrap;connectable=0;strokeColor=inherit;overflow=hidden;fillColor=none;top=0;left=0;bottom=0;right=0;pointerEvents=1;fontSize=16;" vertex="1" parent="xWpMKaaXVbRMBy7SgJGM-23">
          <mxGeometry x="157" width="156" height="70" as="geometry">
            <mxRectangle width="156" height="70" as="alternateBounds" />
          </mxGeometry>
        </mxCell>
        <mxCell id="xWpMKaaXVbRMBy7SgJGM-26" value="SQL" style="shape=partialRectangle;html=1;whiteSpace=wrap;connectable=0;strokeColor=inherit;overflow=hidden;fillColor=none;top=0;left=0;bottom=0;right=0;pointerEvents=1;fontSize=16;" vertex="1" parent="xWpMKaaXVbRMBy7SgJGM-23">
          <mxGeometry x="313" width="217" height="70" as="geometry">
            <mxRectangle width="217" height="70" as="alternateBounds" />
          </mxGeometry>
        </mxCell>
        <mxCell id="xWpMKaaXVbRMBy7SgJGM-27" value="" style="shape=tableRow;horizontal=0;startSize=0;swimlaneHead=0;swimlaneBody=0;strokeColor=inherit;top=0;left=0;bottom=0;right=0;collapsible=0;dropTarget=0;fillColor=none;points=[[0,0.5],[1,0.5]];portConstraint=eastwest;fontSize=16;" vertex="1" parent="xWpMKaaXVbRMBy7SgJGM-22">
          <mxGeometry y="70" width="530" height="87" as="geometry" />
        </mxCell>
        <mxCell id="xWpMKaaXVbRMBy7SgJGM-28" value="&lt;span style=&quot;font-size: 12px;&quot;&gt;Номера телефонов и марки машин всех автовладельцев&lt;/span&gt;" style="shape=partialRectangle;html=1;whiteSpace=wrap;connectable=0;strokeColor=inherit;overflow=hidden;fillColor=none;top=0;left=0;bottom=0;right=0;pointerEvents=1;fontSize=16;" vertex="1" parent="xWpMKaaXVbRMBy7SgJGM-27">
          <mxGeometry width="157" height="87" as="geometry">
            <mxRectangle width="157" height="87" as="alternateBounds" />
          </mxGeometry>
        </mxCell>
        <mxCell id="xWpMKaaXVbRMBy7SgJGM-29" value="&lt;font style=&quot;font-size: 12px;&quot;&gt;get_by_brand_and_color(&lt;br&gt;Brand, _, _, Phone, _)&lt;/font&gt;" style="shape=partialRectangle;html=1;whiteSpace=wrap;connectable=0;strokeColor=inherit;overflow=hidden;fillColor=none;top=0;left=0;bottom=0;right=0;pointerEvents=1;fontSize=16;" vertex="1" parent="xWpMKaaXVbRMBy7SgJGM-27">
          <mxGeometry x="157" width="156" height="87" as="geometry">
            <mxRectangle width="156" height="87" as="alternateBounds" />
          </mxGeometry>
        </mxCell>
        <mxCell id="xWpMKaaXVbRMBy7SgJGM-30" value="&lt;font style=&quot;font-size: 12px;&quot;&gt;select cars.brand, phone_dir.phone&lt;br&gt;&amp;nbsp;from phone_dir join cars on phone_dir.surname = cars.surname&amp;nbsp;&lt;/font&gt;" style="shape=partialRectangle;html=1;whiteSpace=wrap;connectable=0;strokeColor=inherit;overflow=hidden;fillColor=none;top=0;left=0;bottom=0;right=0;pointerEvents=1;fontSize=16;" vertex="1" parent="xWpMKaaXVbRMBy7SgJGM-27">
          <mxGeometry x="313" width="217" height="87" as="geometry">
            <mxRectangle width="217" height="87" as="alternateBounds" />
          </mxGeometry>
        </mxCell>
        <mxCell id="xWpMKaaXVbRMBy7SgJGM-31" value="" style="shape=tableRow;horizontal=0;startSize=0;swimlaneHead=0;swimlaneBody=0;strokeColor=inherit;top=0;left=0;bottom=0;right=0;collapsible=0;dropTarget=0;fillColor=none;points=[[0,0.5],[1,0.5]];portConstraint=eastwest;fontSize=16;" vertex="1" parent="xWpMKaaXVbRMBy7SgJGM-22">
          <mxGeometry y="157" width="530" height="100" as="geometry" />
        </mxCell>
        <mxCell id="xWpMKaaXVbRMBy7SgJGM-32" value="&lt;font style=&quot;font-size: 12px;&quot;&gt;&amp;nbsp;Фамилии и города всех людей, имеющих машину марки &quot;mersedes&quot;&lt;/font&gt;" style="shape=partialRectangle;html=1;whiteSpace=wrap;connectable=0;strokeColor=inherit;overflow=hidden;fillColor=none;top=0;left=0;bottom=0;right=0;pointerEvents=1;fontSize=16;" vertex="1" parent="xWpMKaaXVbRMBy7SgJGM-31">
          <mxGeometry width="157" height="100" as="geometry">
            <mxRectangle width="157" height="100" as="alternateBounds" />
          </mxGeometry>
        </mxCell>
        <mxCell id="xWpMKaaXVbRMBy7SgJGM-33" value="&lt;font style=&quot;font-size: 12px;&quot;&gt;get_by_brand_and_color(&lt;br&gt;&quot;mersedes&quot;, _, Surname, _, City)&lt;/font&gt;" style="shape=partialRectangle;html=1;whiteSpace=wrap;connectable=0;strokeColor=inherit;overflow=hidden;fillColor=none;top=0;left=0;bottom=0;right=0;pointerEvents=1;fontSize=16;" vertex="1" parent="xWpMKaaXVbRMBy7SgJGM-31">
          <mxGeometry x="157" width="156" height="100" as="geometry">
            <mxRectangle width="156" height="100" as="alternateBounds" />
          </mxGeometry>
        </mxCell>
        <mxCell id="xWpMKaaXVbRMBy7SgJGM-34" value="&lt;font style=&quot;font-size: 12px;&quot;&gt;select phone_dir.surname, phone_dir.city from phone_dir join cars on phone_dir.surname = cars.surname where cars.brand = &quot;mersedes&quot;&lt;/font&gt;" style="shape=partialRectangle;html=1;whiteSpace=wrap;connectable=0;strokeColor=inherit;overflow=hidden;fillColor=none;top=0;left=0;bottom=0;right=0;pointerEvents=1;fontSize=16;" vertex="1" parent="xWpMKaaXVbRMBy7SgJGM-31">
          <mxGeometry x="313" width="217" height="100" as="geometry">
            <mxRectangle width="217" height="100" as="alternateBounds" />
          </mxGeometry>
        </mxCell>
        <mxCell id="xWpMKaaXVbRMBy7SgJGM-35" style="shape=tableRow;horizontal=0;startSize=0;swimlaneHead=0;swimlaneBody=0;strokeColor=inherit;top=0;left=0;bottom=0;right=0;collapsible=0;dropTarget=0;fillColor=none;points=[[0,0.5],[1,0.5]];portConstraint=eastwest;fontSize=16;" vertex="1" parent="xWpMKaaXVbRMBy7SgJGM-22">
          <mxGeometry y="257" width="530" height="100" as="geometry" />
        </mxCell>
        <mxCell id="xWpMKaaXVbRMBy7SgJGM-36" value="&lt;font style=&quot;font-size: 12px;&quot;&gt;Номера телефонов всех людей, имеющих машину цвета &quot;black&quot;&lt;/font&gt;" style="shape=partialRectangle;html=1;whiteSpace=wrap;connectable=0;strokeColor=inherit;overflow=hidden;fillColor=none;top=0;left=0;bottom=0;right=0;pointerEvents=1;fontSize=16;" vertex="1" parent="xWpMKaaXVbRMBy7SgJGM-35">
          <mxGeometry width="157" height="100" as="geometry">
            <mxRectangle width="157" height="100" as="alternateBounds" />
          </mxGeometry>
        </mxCell>
        <mxCell id="xWpMKaaXVbRMBy7SgJGM-37" value="&lt;font style=&quot;font-size: 12px;&quot;&gt;get_by_brand_and_color(_, &quot;black&quot;, _, Phone, _)&lt;/font&gt;" style="shape=partialRectangle;html=1;whiteSpace=wrap;connectable=0;strokeColor=inherit;overflow=hidden;fillColor=none;top=0;left=0;bottom=0;right=0;pointerEvents=1;fontSize=16;" vertex="1" parent="xWpMKaaXVbRMBy7SgJGM-35">
          <mxGeometry x="157" width="156" height="100" as="geometry">
            <mxRectangle width="156" height="100" as="alternateBounds" />
          </mxGeometry>
        </mxCell>
        <mxCell id="xWpMKaaXVbRMBy7SgJGM-38" value="&lt;span style=&quot;color: rgb(0, 0, 0); font-family: Helvetica; font-size: 12px; font-style: normal; font-variant-ligatures: normal; font-variant-caps: normal; font-weight: 400; letter-spacing: normal; orphans: 2; text-align: center; text-indent: 0px; text-transform: none; widows: 2; word-spacing: 0px; -webkit-text-stroke-width: 0px; background-color: rgb(251, 251, 251); text-decoration-thickness: initial; text-decoration-style: initial; text-decoration-color: initial; float: none; display: inline !important;&quot;&gt;select phone_dir.phone from phone_dir join cars on phone_dir.surname = cars.surname where cars.color = &quot;black&quot;&lt;/span&gt;" style="shape=partialRectangle;html=1;whiteSpace=wrap;connectable=0;strokeColor=inherit;overflow=hidden;fillColor=none;top=0;left=0;bottom=0;right=0;pointerEvents=1;fontSize=16;" vertex="1" parent="xWpMKaaXVbRMBy7SgJGM-35">
          <mxGeometry x="313" width="217" height="100" as="geometry">
            <mxRectangle width="217" height="100" as="alternateBounds" />
          </mxGeometry>
        </mxCell>
      </root>
    </mxGraphModel>
  </diagram>
</mxfile>
